<!DOCTYPE svg PUBLIC "-//W3C//DTD SVG 1.1//EN" "http://www.w3.org/Graphics/SVG/1.1/DTD/svg11.dtd">
<!-- Uploaded to: SVG Repo, www.svgrepo.com, Transformed by: SVG Repo Mixer Tools -->
<svg fill="#078d2f" height="800px" width="800px" version="1.1" id="Layer_1" xmlns="http://www.w3.org/2000/svg" xmlns:xlink="http://www.w3.org/1999/xlink" viewBox="0 0 511.998 511.998" xml:space="preserve">
<g id="SVGRepo_bgCarrier" stroke-width="0"/>
<g id="SVGRepo_tracerCarrier" stroke-linecap="round" stroke-linejoin="round"/>
<g id="SVGRepo_iconCarrier"> <g> <g> <path d="M465.737,243.127c-10.291-10.291-42.381-16.028-51.971-17.543c-3.223-0.508-6.496,0.557-8.802,2.863 c-2.307,2.308-3.371,5.579-2.863,8.802c1.514,9.59,7.251,41.68,17.542,51.971c6.354,6.353,14.7,9.531,23.047,9.531 s16.692-3.177,23.047-9.531C478.446,276.512,478.446,255.835,465.737,243.127z M451.313,274.796 c-2.303,2.304-5.366,3.572-8.622,3.572c-3.257,0-6.319-1.268-8.622-3.572c-2.496-2.496-6.136-13.416-9.04-26.284 c12.869,2.905,23.789,6.544,26.284,9.04c2.304,2.303,3.572,5.366,3.572,8.622C454.884,269.43,453.617,272.494,451.313,274.796z"/> </g> </g> <g> <g> <path d="M356.734,287.473c-2.307-2.305-5.577-3.371-8.802-2.862c-9.59,1.514-41.68,7.251-51.971,17.542 c-12.708,12.708-12.708,33.385,0,46.093c6.354,6.353,14.7,9.531,23.047,9.531s16.692-3.177,23.047-9.531 c10.291-10.291,16.028-42.381,17.542-51.971C360.105,293.052,359.042,289.781,356.734,287.473z M327.63,333.823 c-2.303,2.304-5.366,3.572-8.622,3.572c-3.257,0-6.319-1.268-8.622-3.572c-2.304-2.303-3.572-5.366-3.572-8.622 c0-3.257,1.268-6.319,3.572-8.622c2.496-2.496,13.416-6.136,26.284-9.04C333.766,320.408,330.127,331.327,327.63,333.823z"/> </g> </g> <g> <g> <path d="M444.887,337.58c-12.71-12.708-33.385-12.708-46.094-0.001c-10.291,10.291-16.028,42.381-17.542,51.971 c-0.508,3.223,0.556,6.494,2.863,8.802c1.929,1.928,4.527,2.987,7.212,2.987c0.528,0,1.06-0.041,1.59-0.124 c9.59-1.514,41.68-7.251,51.971-17.542C457.595,370.965,457.595,350.288,444.887,337.58z M430.462,369.249 c-2.496,2.496-13.416,6.136-26.284,9.04c2.905-12.869,6.544-23.789,9.04-26.284c2.303-2.304,5.366-3.572,8.622-3.572 s6.319,1.268,8.622,3.572c2.304,2.303,3.572,5.366,3.572,8.622C434.034,363.883,432.765,366.946,430.462,369.249z"/> </g> </g> <g> <g> <path d="M473.013,110.66c-0.046-0.002-0.091,0-0.134,0l-89.222,0.779c-30.363,0.196-59.885,6.414-87.746,18.481l-138.856,60.142 c-0.136,0.059-0.27,0.12-0.403,0.186c-7.435,3.612-14.834,5.977-22.002,7.034h-5.008v-11.82c0-5.632-4.567-10.199-10.199-10.199 H10.199C4.567,175.263,0,179.83,0,185.462v155.674c0,5.632,4.567,10.199,10.199,10.199h109.245 c5.632,0,10.199-4.567,10.199-10.199v-36.514l28.633,0.015c0.02,0,0.036,0,0.056,0c18.731,0,36.762-3.348,53.582-9.95l0.29-0.112 c0.152-0.06,0.303-0.123,0.451-0.191l139.181-62.381c9.656-3.613,17.366-10.732,21.74-20.084 c3.475-7.431,4.517-15.575,3.083-23.487l96.011,0.542c0.059,0,0.116,0,0.175,0c10.394,0,20.177-4.026,27.562-11.347 c7.429-7.364,11.544-17.179,11.59-27.638C512.092,128.398,494.603,110.756,473.013,110.66z M67.368,330.937H20.398V195.661h46.969 V330.937z M109.245,330.937H87.765V195.661h21.479V330.937z M486.05,163.14c-3.539,3.508-8.225,5.436-13.193,5.436 c-0.028,0-0.056,0-0.084,0l-106.968-0.603c-9.913-9.754-24.676-13.868-38.816-9.578c-0.402,0.121-0.794,0.268-1.178,0.439 l-83.614,37.124c-5.149,2.286-7.469,8.312-5.183,13.46c1.688,3.803,5.419,6.063,9.328,6.063c1.382,0,2.787-0.283,4.133-0.88 l82.977-36.842c9.183-2.485,18.772,2.336,22.291,11.184c3.522,9.721-1.519,20.496-11.24,24.023 c-0.235,0.085-0.466,0.178-0.694,0.28l-139.273,62.423l-0.068,0.026c-14.442,5.669-29.964,8.542-46.133,8.542 c-0.016,0-0.033,0-0.048,0l-28.643-0.015v-66.545h5.728c0.462,0,0.923-0.032,1.381-0.094c9.447-1.291,19.069-4.282,28.609-8.892 l138.661-60.055c25.329-10.971,52.167-16.624,79.792-16.802l89.171-0.779c10.315,0.079,18.661,8.518,18.617,18.841 C491.58,154.911,489.609,159.613,486.05,163.14z"/> </g> </g> <g> <g> <path d="M228.522,213.185c-2.286-5.147-8.309-7.466-13.462-5.18l-1.989,0.883c-5.148,2.286-7.467,8.312-5.18,13.461 c1.688,3.802,5.418,6.061,9.327,6.061c1.382,0,2.788-0.284,4.135-0.881l1.989-0.883 C228.49,224.361,230.809,218.334,228.522,213.185z"/> </g> </g> </g>
</svg>