<!DOCTYPE svg PUBLIC "-//W3C//DTD SVG 1.1//EN" "http://www.w3.org/Graphics/SVG/1.1/DTD/svg11.dtd">
<!-- Uploaded to: SVG Repo, www.svgrepo.com, Transformed by: SVG Repo Mixer Tools -->
<svg fill="#078d2f" height="800px" width="800px" version="1.1" id="Layer_1" xmlns="http://www.w3.org/2000/svg" xmlns:xlink="http://www.w3.org/1999/xlink" viewBox="0 0 512 512" xml:space="preserve" stroke="#078d2f">
<g id="SVGRepo_bgCarrier" stroke-width="0"/>
<g id="SVGRepo_tracerCarrier" stroke-linecap="round" stroke-linejoin="round"/>
<g id="SVGRepo_iconCarrier"> <g> <g> <g> <path d="M494.403,0H17.596C11.327,0,6.243,5.083,6.243,11.353v56.763c0,6.27,5.084,11.353,11.353,11.353h79.468v45.41 c0,0.066,0.009,0.129,0.01,0.195c0.017,1.004,0.114,3.483,0.908,4.276l37.681,88.888v54.223c0,6.27,5.084,11.353,11.353,11.353 h217.969c6.269,0,11.353-5.083,11.353-11.353v-54.223c0,0,37.653-88.822,37.681-88.888c0.594-1.401,0.917-2.947,0.917-4.472 v-45.41h79.468c6.269,0,11.353-5.083,11.353-11.353V11.353C505.756,5.083,500.672,0,494.403,0z M190.155,261.109h-31.787v-34.058 h31.787V261.109z M244.647,261.109H212.86v-34.058h31.787V261.109z M299.139,261.109h-31.787v-34.058h31.787V261.109z M353.631,261.109h-31.787v-34.058h31.787V261.109z M357.565,204.346H154.434l-28.875-68.115h260.88L357.565,204.346z M119.769,113.526V79.468h26.489v34.058H119.769z M168.963,113.526V79.468h26.49v34.058H168.963z M218.158,113.526V79.468h26.489 v34.058H218.158z M267.352,113.526V79.468h26.489v34.058H267.352z M316.546,113.526V79.468h26.49v34.058H316.546z M392.23,113.526h-26.489V79.468h26.489V113.526z M483.05,56.763H28.948V22.705H483.05V56.763z"/> <path d="M108.416,295.335c-6.269,0-11.353,5.083-11.353,11.353v17.029c0,6.27,5.084,11.353,11.353,11.353 c6.269,0,11.353-5.083,11.353-11.353v-17.029C119.769,300.418,114.685,295.335,108.416,295.335z"/> <path d="M108.416,410.082c-6.269,0-11.353,5.083-11.353,11.353v26.65c0,6.27,5.084,11.353,11.353,11.353 c6.269,0,11.353-5.083,11.353-11.353v-26.651C119.769,415.165,114.685,410.082,108.416,410.082z"/> <path d="M108.416,347.898c-6.269,0-11.353,5.083-11.353,11.353v26.65c0,6.27,5.084,11.353,11.353,11.353 c6.269,0,11.353-5.083,11.353-11.353v-26.65C119.769,352.98,114.685,347.898,108.416,347.898z"/> <path d="M108.416,472.266c-6.269,0-11.353,5.083-11.353,11.353v17.029c0,6.27,5.084,11.353,11.353,11.353 c6.269,0,11.353-5.083,11.353-11.353v-17.029C119.769,477.349,114.685,472.266,108.416,472.266z"/> <path d="M167.45,322.412c-6.269,0-11.353,5.083-11.353,11.353v17.029c0,6.27,5.084,11.353,11.353,11.353 c6.269,0,11.353-5.083,11.353-11.353v-17.029C178.802,327.495,173.718,322.412,167.45,322.412z"/> <path d="M167.45,387.741c-6.269,0-11.353,5.083-11.353,11.353v36.225c0,6.27,5.084,11.353,11.353,11.353 c6.269,0,11.353-5.083,11.353-11.353v-36.225C178.802,392.823,173.718,387.741,167.45,387.741z"/> <path d="M167.45,472.266c-6.269,0-11.353,5.083-11.353,11.353v17.029c0,6.27,5.084,11.353,11.353,11.353 c6.269,0,11.353-5.083,11.353-11.353v-17.029C178.802,477.349,173.718,472.266,167.45,472.266z"/> <path d="M226.483,322.412c-6.269,0-11.353,5.083-11.353,11.353v17.029c0,6.27,5.084,11.353,11.353,11.353 c6.269,0,11.353-5.083,11.353-11.353v-17.029C237.835,327.495,232.752,322.412,226.483,322.412z"/> <path d="M226.483,387.741c-6.269,0-11.353,5.083-11.353,11.353v36.225c0,6.27,5.084,11.353,11.353,11.353 c6.269,0,11.353-5.083,11.353-11.353v-36.225C237.835,392.823,232.752,387.741,226.483,387.741z"/> <path d="M226.483,472.266c-6.269,0-11.353,5.083-11.353,11.353v17.029c0,6.27,5.084,11.353,11.353,11.353 c6.269,0,11.353-5.083,11.353-11.353v-17.029C237.835,477.349,232.752,472.266,226.483,472.266z"/> <path d="M285.516,322.412c-6.269,0-11.353,5.083-11.353,11.353v17.029c0,6.27,5.084,11.353,11.353,11.353 c6.269,0,11.353-5.083,11.353-11.353v-17.029C296.869,327.495,291.785,322.412,285.516,322.412z"/> <path d="M285.516,387.741c-6.269,0-11.353,5.083-11.353,11.353v36.225c0,6.27,5.084,11.353,11.353,11.353 c6.269,0,11.353-5.083,11.353-11.353v-36.225C296.869,392.823,291.785,387.741,285.516,387.741z"/> <path d="M285.516,472.266c-6.269,0-11.353,5.083-11.353,11.353v17.029c0,6.27,5.084,11.353,11.353,11.353 c6.269,0,11.353-5.083,11.353-11.353v-17.029C296.869,477.349,291.785,472.266,285.516,472.266z"/> <path d="M344.549,322.412c-6.269,0-11.353,5.083-11.353,11.353v17.029c0,6.27,5.084,11.353,11.353,11.353 c6.269,0,11.353-5.083,11.353-11.353v-17.029C355.902,327.495,350.818,322.412,344.549,322.412z"/> <path d="M344.549,387.741c-6.269,0-11.353,5.083-11.353,11.353v36.225c0,6.27,5.084,11.353,11.353,11.353 c6.269,0,11.353-5.083,11.353-11.353v-36.225C355.902,392.823,350.818,387.741,344.549,387.741z"/> <path d="M344.549,472.266c-6.269,0-11.353,5.083-11.353,11.353v17.029c0,6.27,5.084,11.353,11.353,11.353 c6.269,0,11.353-5.083,11.353-11.353v-17.029C355.902,477.349,350.818,472.266,344.549,472.266z"/> <path d="M403.583,295.335c-6.269,0-11.353,5.083-11.353,11.353v17.029c0,6.27,5.084,11.353,11.353,11.353 c6.269,0,11.353-5.083,11.353-11.353v-17.029C414.935,300.418,409.851,295.335,403.583,295.335z"/> <path d="M403.583,410.082c-6.269,0-11.353,5.083-11.353,11.353v26.65c0,6.27,5.084,11.353,11.353,11.353 c6.269,0,11.353-5.083,11.353-11.353v-26.651C414.935,415.165,409.851,410.082,403.583,410.082z"/> <path d="M403.583,347.898c-6.269,0-11.353,5.083-11.353,11.353v26.65c0,6.27,5.084,11.353,11.353,11.353 c6.269,0,11.353-5.083,11.353-11.353v-26.65C414.935,352.98,409.851,347.898,403.583,347.898z"/> <path d="M403.583,472.266c-6.269,0-11.353,5.083-11.353,11.353v17.029c0,6.27,5.084,11.353,11.353,11.353 c6.269,0,11.353-5.083,11.353-11.353v-17.029C414.935,477.349,409.851,472.266,403.583,472.266z"/> </g> </g> </g> </g>
</svg>